<svg xmlns="http://www.w3.org/2000/svg" width="88" height="169" viewBox="0 0 88 169"><path fill="#b4fff4" d="M78.6 124l-12.3-20.2a91 91 0 0 0 4.1-25.2c0-1.1-.1-2.2-.1-3.3-1.3-22.6-10-30.7-16.5-37.2-3.1-3.1-5.4-5.7-7.1-9.5a.3.3 0 0 1-.1-.2 5.8 5.8 0 0 0 2.8-.9 3.9 3.9 0 0 0 1.8-3.4l-.4-.8c-.5-.5-2.1-.9-4.6-1a12.6 12.6 0 0 1 .1-4.3c.1-.8.1-.8 1.2-.9h.2a1.5 1.5 0 0 0 1.3-.8c.5-.9-.1-1.9-.5-2.5v-.6q-2.7-6.4-2.7-9c0-2.2-.5-2.7-.9-3a1.4 1.4 0 0 0-1.1.1c-.2.1-.9.5-.9 2.9s-.5 3.6-2.7 9.1v.5a3.6 3.6 0 0 0-.7 1.8 1.9 1.9 0 0 0 .2.7 1.6 1.6 0 0 0 1.3.8h.2c1.1.1 1.1.1 1.2.9a12.3 12.3 0 0 1 .2 2.6 9.1 9.1 0 0 1-.1 1.7c-2.5.1-4.1.4-4.6 1l-.4.8a3.8 3.8 0 0 0 1.5 3.4 5.1 5.1 0 0 0 2.7.9.3.3 0 0 1-.1.2c-1.6 3.8-4.3 6.5-7.4 9.7-6.5 6.4-15.2 14.5-16.5 37 0 1.1-.1 2.2-.1 3.3a91 91 0 0 0 4.1 25.2L9.4 124 2 167h8.4l7.8-27.3 13.2-11.1h.4l1.5.5c.2 1.4.5 2.8.6 3.7s.5 2.3 6.6 2.8V167h6.9v-31.2c6.5-.4 6.8-2.1 7-2.8s.4-2.3.6-3.7l1.5-.5h.2l13.1 11 7.8 27.2H86z"/></svg>