<svg xmlns="http://www.w3.org/2000/svg" width="116" height="227.3" viewBox="0 0 116 227.3"><path fill="#b4fff4" d="M104.9 167.9l-16.6-27.5c3.1-10.5 5.5-22.4 5.5-34 0-1.6 0-3.1-.1-4.6C92 71.2 80.1 60.2 71.3 51.4c-4.2-4.2-7.4-7.8-9.7-12.9a.4.4 0 0 0-.1-.3 9.5 9.5 0 0 0 3.8-1.2 5.2 5.2 0 0 0 2.4-4.7l-.4-1.1c-.8-.7-2.9-1.1-6.3-1.3a19.7 19.7 0 0 1 .1-5.9c.1-1 .1-1 1.6-1.2h.3a2.1 2.1 0 0 0 1.8-1.2c.6-1.2-.2-2.5-.6-3.4L64 18l-.2-.5q-3.6-8.9-3.6-12.3c0-2.9-.7-3.7-1.2-4a1.4 1.4 0 0 0-1.5 0c-.3.2-1.3.7-1.3 4 0 1.5-.6 4.9-3.6 12.4l-.2.4v.2a5.4 5.4 0 0 0-.9 2.5 2.9 2.9 0 0 0 .2.9 2.1 2.1 0 0 0 1.8 1.2h.3c1.5.2 1.5.2 1.6 1.2a26 26 0 0 1 .3 3.6 8.6 8.6 0 0 1-.2 2.3c-3.4.2-5.5.6-6.2 1.3l-.5 1.1a5.2 5.2 0 0 0 2.3 4.7 10 10 0 0 0 3.8 1.2.4.4 0 0 0-.1.3c-2.3 5.2-5.9 8.8-10.1 13.1-8.9 8.8-20.7 19.7-22.4 50.2-.1 1.5-.1 3-.1 4.6 0 11.6 2.4 23.5 5.5 34l-16.6 27.5L1 226.3h11.4L23 189.2l17.8-15h.1l.6.3 2 .6.8 5c.2 1 .7 3.2 9 3.8v42.4h9.4v-42.4c8.8-.5 9.2-2.8 9.4-3.7s.5-3.2.9-5.1l1.9-.6.4-.2L93 189.2l10.6 37.1H115z"/></svg>